<?xml version="1.0" encoding="utf-8"?>
<!-- Generator: Adobe Illustrator 22.0.0, SVG Export Plug-In . SVG Version: 6.00 Build 0)  -->
<svg version="1.1" xmlns="http://www.w3.org/2000/svg" xmlns:xlink="http://www.w3.org/1999/xlink" x="0px" y="0px"
	 viewBox="0 0 1024 1024" style="enable-background:new 0 0 1024 1024;" xml:space="preserve">
<style type="text/css">
	.st0{opacity:0.1;fill:#6466AF;enable-background:new    ;}
	.st1{fill:#FFFFFF;}
	.st2{fill:#82C341;}
	.st3{opacity:0.81;fill:#D1D3D4;}
	.st4{fill:#286934;}
	.st5{opacity:0.75;fill:#41B655;}
	.st6{fill:#D5D6DC;}
	.st7{opacity:0.1;fill:#010101;enable-background:new    ;}
	.st8{opacity:0.3;fill:#FFFFFF;enable-background:new    ;}
	.st9{opacity:0.45;fill:#FFFFFF;enable-background:new    ;}
	.st10{fill:#4C4C5C;}
	.st11{opacity:0.1;fill:none;stroke:#010101;stroke-width:1.0402;stroke-miterlimit:10;enable-background:new    ;}
	.st12{fill:url(#SVGID_1_);}
	.st13{fill:#E2E2EB;}
	.st14{fill:#F1F1F9;}
	.st15{fill:#E8E9F5;}
	.st16{opacity:0.1;fill:none;stroke:#010101;stroke-width:4.1608;stroke-miterlimit:10;enable-background:new    ;}
	.st17{fill:#302E41;}
	.st18{fill:#A0626B;}
	.st19{opacity:5.000000e-02;fill:#010101;enable-background:new    ;}
	.st20{fill:#F3F3F3;}
	.st21{fill:#403E56;}
	.st22{fill:none;stroke:#302E41;stroke-width:1.2;stroke-linecap:round;stroke-miterlimit:10;}
	.st23{fill:none;stroke:#302E41;stroke-width:2;stroke-linecap:round;stroke-miterlimit:10;}
</style>
<g id="Layer_5">
	<path class="st0" d="M603.1,352.3c-62.4-2.2-121.9-22.4-178.6-44.6s-113-46.7-173.9-58.5c-39.2-7.6-84-8.6-115.6,12.5
		c-30.4,20.4-40.2,55.4-45.5,88c-4,24.5-6.3,50.3,4.6,73.2c7.6,15.9,21,29.3,30.2,44.6c32.3,53.1,9.5,118.5-25.5,170.3
		c-16.4,24.3-35.4,47.5-48.1,73.4s-18.5,55.5-7.4,81.9c11,26.2,37.1,45.8,65.5,59.6c57.6,28.1,125.4,36.1,191.5,40.7
		c146.4,10.1,293.6,5.7,440.4,1.3c54.3-1.6,108.9-3.3,162.3-11.7c29.7-4.7,60.3-12.1,81.9-30.1c27.3-22.8,34.1-61.5,15.8-90.1
		C970,714.9,885,703,863.5,651.5c-11.8-28.3,0.3-59.9,17.5-86.2c36.9-56.4,98.7-105.9,101.9-170.4c2.2-44.3-27.5-88.6-73.4-109.6
		c-48.1-22-114.9-19.3-150.4,17.1C722.5,339.9,658.2,354.3,603.1,352.3z"/>
</g>
<g id="Layer_4">
	<path class="st1" d="M879.8,852.6l-177.4-22.4c-8-66.9,4.1-132.2,24.8-197.1l177.4,22.4C877.9,719.2,870.1,785,879.8,852.6z"/>
	
		<rect x="799.7" y="614.8" transform="matrix(0.1251 -0.9921 0.9921 0.1251 40.6377 1384.9216)" class="st2" width="11.7" height="109.3"/>
	
		<rect x="797.2" y="620.4" transform="matrix(0.1251 -0.9921 0.9921 0.1251 11.0595 1401.4294)" class="st3" width="5.9" height="148.1"/>
	
		<rect x="794.8" y="639.2" transform="matrix(0.1251 -0.9921 0.9921 0.1251 -9.6794 1415.5359)" class="st3" width="5.9" height="148.1"/>
	
		<rect x="792.4" y="658" transform="matrix(0.1251 -0.9921 0.9921 0.1251 -30.4184 1429.6425)" class="st3" width="5.9" height="148.1"/>
	
		<rect x="790.1" y="676.8" transform="matrix(0.1251 -0.9921 0.9921 0.1251 -51.1573 1443.749)" class="st3" width="5.9" height="148.1"/>
	
		<rect x="787.7" y="695.7" transform="matrix(0.1251 -0.9921 0.9921 0.1251 -71.8962 1457.8556)" class="st3" width="5.9" height="148.1"/>
	<path class="st1" d="M811,806L636.3,768c-2.1-67.3,15.8-131.3,42.1-194.1l174.7,37.9C820.9,672.9,807.3,737.7,811,806z"/>
	
		<rect x="747.3" y="562.3" transform="matrix(0.2121 -0.9772 0.9772 0.2121 -9.4925 1222.1251)" class="st4" width="11.7" height="109.3"/>
	
		<rect x="742.6" y="567.4" transform="matrix(0.2121 -0.9772 0.9772 0.2121 -39.3844 1233.9426)" class="st3" width="5.9" height="148.1"/>
	
		<rect x="738.6" y="585.9" transform="matrix(0.2121 -0.9772 0.9772 0.2121 -60.6609 1244.6102)" class="st3" width="5.9" height="148.1"/>
	
		<rect x="734.6" y="604.4" transform="matrix(0.2121 -0.9772 0.9772 0.2121 -81.9374 1255.2777)" class="st3" width="5.9" height="148.1"/>
	
		<rect x="730.6" y="622.9" transform="matrix(0.2121 -0.9772 0.9772 0.2121 -103.2139 1265.9453)" class="st3" width="5.9" height="148.1"/>
	
		<rect x="726.6" y="641.5" transform="matrix(0.2121 -0.9772 0.9772 0.2121 -124.4904 1276.6128)" class="st3" width="5.9" height="148.1"/>
	
		<rect x="722.5" y="660" transform="matrix(0.2121 -0.9772 0.9772 0.2121 -145.767 1287.2804)" class="st3" width="5.9" height="148.1"/>
	
		<rect x="718.5" y="678.5" transform="matrix(0.2121 -0.9772 0.9772 0.2121 -167.0435 1297.9479)" class="st3" width="5.9" height="148.1"/>
</g>
<g id="Layer_1">
	<polygon class="st4" points="404,799.2 74,797.6 41.2,720.7 157.1,712.3 136.9,628 366.2,598.3 146.6,521.9 166,517.3 519.1,574.9 
		499.7,706.5 471.9,778.8 	"/>
	<path class="st5" d="M89.4,750.9c0,0,20.2-3.2,32.4,11.1c0,0-8.9,7-28.1-2.7L89.4,750.9z"/>
	<path class="st5" d="M87.3,750.5c0,0-12.9,15.9-6.6,33.6c0,0,10.5-4.2,11.7-25.7L87.3,750.5z"/>
	<path class="st5" d="M75.7,724.4c0,0,8.1-14.9,40.5,5.9c0,0-4.3,10-18.6,9.2S79.5,732.2,75.7,724.4z"/>
	<path class="st5" d="M73.6,723.3c0,0-16.8-1.9-18.4,36.5c0,0,10.7,2.2,18.2-10C80.9,737.7,77.8,730.9,73.6,723.3z"/>
	<path class="st6" d="M592.2,738c0,0-21.9,26.7-4.5,67l-174.5,75.7l-16.7,3.5l-7.7-33.7l5.2-42.6v-23.3L592.2,738z"/>
	<polygon class="st4" points="41.2,720.7 282.7,676.7 602.7,727.7 404,799.2 	"/>
	<polygon class="st4" points="41.2,720.7 282.7,676.7 602.7,727.7 404,799.2 	"/>
	<path class="st4" d="M41.2,720.7c0,0-22.6,42.8,3.4,82.3l358.2,77.6c0,0-22.2-34.1,1.1-81.4L41.2,720.7z"/>
	<path class="st7" d="M41.2,720.7c0,0-22.6,42.8,3.4,82.3l358.2,77.6c0,0-22.2-34.1,1.1-81.4L41.2,720.7z"/>
	<path class="st7" d="M62.2,721c0,0-12.9,31.3,0,51.6"/>
	<path class="st4" d="M402.8,880.6l200-85.3c0,0,11.2,2.4,4,10.6c-7.2,8.2-200.1,82.9-200.1,82.9L44.6,803L402.8,880.6z"/>
	<path class="st7" d="M402.8,880.6l200-85.3c0,0,11.2,2.4,4,10.6c-7.2,8.2-200.1,82.9-200.1,82.9L44.6,803L402.8,880.6z"/>
	<path class="st7" d="M386.4,807.9c0,0-19.3,23.1,0,57.8"/>
	
		<rect x="391.1" y="821.9" transform="matrix(0.9486 -0.3165 0.3165 0.9486 -237.8114 180.4567)" class="st7" width="91.2" height="1"/>
	
		<rect x="389.8" y="824.3" transform="matrix(0.9347 -0.3554 0.3554 0.9347 -264.079 212.1359)" class="st7" width="111.1" height="1"/>
	
		<rect x="389.2" y="828.8" transform="matrix(0.9255 -0.3788 0.3788 0.9255 -280.3414 233.6194)" class="st7" width="128.8" height="1"/>
	
		<rect x="388.8" y="830.7" transform="matrix(0.9113 -0.4117 0.4117 0.9113 -301.1471 264.2794)" class="st7" width="148.2" height="1"/>
	
		<rect x="389.7" y="832.7" transform="matrix(0.9163 -0.4005 0.4005 0.9163 -294.3029 258.2751)" class="st7" width="162.1" height="1"/>
	
		<rect x="390.7" y="833.3" transform="matrix(0.918 -0.3965 0.3965 0.918 -290.6296 261.7378)" class="st7" width="194" height="1"/>
	<polygon class="st8" points="130.9,725.4 300.6,689.8 404,709.5 264.9,754.3 	"/>
	<path class="st4" d="M602.7,727.7c0,0,8.8,3.5,3.6,9s-202.4,62.6-202.4,62.6L602.7,727.7z"/>
	<path class="st6" d="M688,645.2c0,0-21.8,26.7-4.5,67L509,787.9l-16.7,3.5l-7.7-33.7l5.2-42.6v-23.3L688,645.2z"/>
	<polygon class="st2" points="136.9,628 378.4,584 698.5,634.9 499.7,706.5 	"/>
	<path class="st2" d="M136.9,628c0,0-22.6,42.8,3.4,82.3l358.2,77.6c0,0-22.2-34.1,1.2-81.4L136.9,628z"/>
	<path class="st7" d="M136.9,628c0,0-22.6,42.8,3.4,82.3l358.2,77.6c0,0-22.2-34.1,1.2-81.4L386.4,682L136.9,628z"/>
	<path class="st7" d="M158,628.3c0,0-12.9,31.3,0,51.6"/>
	<path class="st2" d="M498.5,787.9l200-85.3c0,0,11.2,2.4,3.9,10.6c-7.2,8.2-200.1,82.9-200.1,82.9l-362-85.8L498.5,787.9z"/>
	<path class="st7" d="M498.5,787.9l200-85.3c0,0,11.2,2.4,3.9,10.6c-7.2,8.2-200.1,82.9-200.1,82.9l-362-85.8L498.5,787.9z"/>
	<path class="st7" d="M482.1,715.1c0,0-19.3,23.1,0,57.8"/>
	
		<rect x="486.8" y="729.1" transform="matrix(0.9486 -0.3165 0.3165 0.9486 -203.5472 205.9889)" class="st7" width="91.2" height="1"/>
	
		<rect x="485.5" y="731.6" transform="matrix(0.9347 -0.3554 0.3554 0.9347 -224.8698 240.113)" class="st7" width="111.1" height="1"/>
	
		<rect x="484.9" y="736.1" transform="matrix(0.9255 -0.3788 0.3788 0.9255 -238.0771 262.9728)" class="st7" width="128.8" height="1"/>
	
		<rect x="484.6" y="738" transform="matrix(0.9113 -0.4117 0.4117 0.9113 -254.481 295.4721)" class="st7" width="148.2" height="1"/>
	
		<rect x="485.4" y="740" transform="matrix(0.9163 -0.4005 0.4005 0.9163 -249.1433 288.8525)" class="st7" width="162.1" height="1"/>
	
		<rect x="486.5" y="740.6" transform="matrix(0.918 -0.3965 0.3965 0.918 -246.0071 292.0963)" class="st7" width="194" height="1"/>
	<polygon class="st9" points="226.6,632.7 396.3,597 499.7,616.8 360.6,661.6 	"/>
	<path class="st2" d="M698.5,634.9c0,0,8.8,3.5,3.6,9s-202.4,62.6-202.4,62.6L698.5,634.9z"/>
	<path class="st6" d="M697,539.1c0,0-21.9,47.9-4.5,88.2L518,681.8l-16.7,3.5l-7.7-33.7l5.2-42.6v-23.3L697,539.1z"/>
	<polygon class="st4" points="146,521.9 387.5,477.9 707.6,528.9 508.8,600.4 	"/>
	<path class="st4" d="M146,521.9c0,0-22.6,42.8,3.4,82.3l358.2,77.6c0,0-22.2-34.1,1.2-81.4L146,521.9z"/>
	<path class="st7" d="M146,521.9c0,0-22.6,42.8,3.4,82.3l358.2,77.6c0,0-22.2-34.1,1.2-81.4L146,521.9z"/>
	<path class="st7" d="M167.1,522.2c0,0-12.9,31.3,0,51.6"/>
	<path class="st4" d="M507.6,681.8l200-64.1c0,0,11.2,2.4,4,10.6c-7.2,8.2-200.1,61.7-200.1,61.7l-362-85.8L507.6,681.8z"/>
	<path class="st7" d="M507.6,681.8l200-64.1c0,0,11.2,2.4,4,10.6c-7.2,8.2-200.1,61.7-200.1,61.7l-362-85.8L507.6,681.8z"/>
	<path class="st7" d="M491.2,609c0,0-19.3,23.1,0,57.8"/>
	
		<rect x="495.9" y="623.1" transform="matrix(0.9486 -0.3165 0.3165 0.9486 -169.506 203.4174)" class="st7" width="91.2" height="1"/>
	
		<rect x="494.6" y="625.5" transform="matrix(0.9347 -0.3554 0.3554 0.9347 -186.5715 236.4197)" class="st7" width="111.1" height="1"/>
	
		<rect x="494" y="630" transform="matrix(0.9255 -0.3788 0.3788 0.9255 -197.2176 258.5104)" class="st7" width="128.8" height="1"/>
	
		<rect x="493.7" y="631.9" transform="matrix(0.9113 -0.4117 0.4117 0.9113 -210.0022 289.8129)" class="st7" width="148.2" height="1"/>
	
		<rect x="494.5" y="633.9" transform="matrix(0.9163 -0.4005 0.4005 0.9163 -205.8974 283.6207)" class="st7" width="162.1" height="1"/>
	
		<rect x="495.6" y="634.5" transform="matrix(0.918 -0.3965 0.3965 0.918 -203.2042 287.0117)" class="st7" width="194" height="1"/>
	<polygon class="st8" points="235.7,526.6 405.4,490.9 508.8,510.7 369.7,555.5 	"/>
	<path class="st4" d="M707.6,528.9c0,0,8.8,3.5,3.6,9s-202.4,62.6-202.4,62.6L707.6,528.9z"/>
	<path class="st7" d="M472.8,454.8c0,0,12.5,7.1,21.9,6.7"/>
	<path class="st7" d="M608.6,503.3c0,0-34.4,5.2-40.8,12.3"/>
	<circle class="st10" cx="591.4" cy="583.1" r="1.7"/>
	<circle class="st10" cx="581.6" cy="585.9" r="1.7"/>
	<path class="st11" d="M440.5,607.3c0,0,8.4-18.9,30.7-4.5"/>
	<path class="st7" d="M525.9,537.2c3.5-2.6,7.2-4.9,11.1-6.9c5.8-2.8,16.4-10,16.4-10"/>
</g>
<g id="Layer_2">
	<title>Bibliophile</title>
	
		<linearGradient id="SVGID_1_" gradientUnits="userSpaceOnUse" x1="822.955" y1="86.8009" x2="822.955" y2="200.8586" gradientTransform="matrix(1 0 0 -1 -60.75 966.18)">
		<stop  offset="0" style="stop-color:#818181;stop-opacity:0.25"/>
		<stop  offset="0.54" style="stop-color:#818181;stop-opacity:0.12"/>
		<stop  offset="1" style="stop-color:#818181;stop-opacity:0.1"/>
	</linearGradient>
	<path class="st12" d="M934,875.2l-27.9-83.3h-10.4c-0.4-3.2-0.7-6.3-0.8-9.2c0,0-37.6,5.6-67.6-10.6c-30-16.1-65.2,1.4-65.2,1.4
		l-0.1-0.1v0v0c-2.4-1.2-36.2-16.9-65.1-1.3c-30,16.1-67.6,10.6-67.6,10.6c-0.1,2.9-0.4,6.1-0.8,9.3h-9.6l-28.5,83.5
		c0,0,115.9,2.9,156.4,0.2c1.5,2.1,7.7,3.7,15.2,3.7c8.4,0,15.3-2,15.6-4.5C809.3,876.6,877.3,879.2,934,875.2z"/>
	<path class="st13" d="M621.9,792.6L594,874.4c0,0,153.6,3.9,166-1.6c0,0,95.3,6.5,170.4,1.3l-27.3-81.6L621.9,792.6z"/>
	<path class="st7" d="M631.4,795.4l-26,76.2c0,0,143.2,3.6,154.7-1.5c0,0,88.9,6.1,158.9,1.2l-25.5-76L631.4,795.4z"/>
	<path class="st14" d="M892.1,783.5c0,0-36.8,5.5-66.2-10.3c-29.3-15.8-63.9,1.4-63.9,1.4s-34.5-17.2-63.9-1.4
		c-29.3,15.8-66.2,10.3-66.2,10.3c-1.2,31.8-23,83.3-23,83.3s40.3,7.4,93.5-7.6c53.2-15,59.5,5.3,59.5,5.3s6.3-20.3,59.5-5.3
		s93.5,7.6,93.5,7.6S893.3,815.4,892.1,783.5z"/>
	<path class="st7" d="M691.1,865.1c0,0,48.6-7.4,71,3.5c0,0,21.6-13.3,71.6-2.9"/>
	<ellipse class="st15" cx="762.1" cy="873.7" rx="15.2" ry="4.5"/>
	<path class="st7" d="M762,774.5c0,0,10.9,37.7,0.3,90.7"/>
	<path class="st16" d="M642.7,795.4c0,0,22.9,3.6,42.7,0s56.2-15.4,68.2,0"/>
	<path class="st16" d="M642.7,802c0,0,22.9,3.6,42.7,0c19.8-3.6,62.7-3.4,68.2,0"/>
	<path class="st16" d="M642.7,813.7c0,0,22.9,3.6,42.7,0c19.8-3.6,56.2-15.4,68.2,0"/>
	<path class="st16" d="M642.7,820.3c0,0,22.9,3.6,42.7,0c19.8-3.6,62.7-3.4,68.2,0"/>
	<path class="st16" d="M881.6,795.4c0,0-22.9,3.6-42.7,0s-56.2-15.4-68.2,0"/>
	<path class="st16" d="M881.6,802c0,0-22.9,3.6-42.7,0c-19.8-3.6-62.7-3.4-68.2,0"/>
	<path class="st16" d="M881.6,813.7c0,0-22.9,3.6-42.7,0c-19.8-3.6-56.2-15.4-68.2,0"/>
	<path class="st16" d="M881.6,820.3c0,0-22.9,3.6-42.7,0c-19.8-3.6-62.7-3.4-68.2,0"/>
</g>
<g id="Layer_3">
	<path class="st17" d="M388.4,236.4c-7.4,2.5-14.1,8.3-15.6,16c-0.7,3.5-0.3,7.2-0.9,10.8c-1.4,8.3-7.9,14.6-13.8,20.4
		s-12.2,12.7-12.6,21c-0.5,9.2,6.2,17.7,5,26.9c-1.3,10.6-12.5,17.4-15.3,27.7c-1.8,6.9,0.4,14.3,4.1,20.4
		c7.1,11.6,19.2,19.4,32.1,23.6c12.9,4.2,26.6,5.1,40.2,5.2c16.5,0.2,34.5-1.2,46.9-12.1c7.1-6.3,11.5-15,12.5-24.4
		c1.2-12.6-4.1-25.7-0.5-37.8c2.3-7.6,8-14.6,7.2-22.6c-0.8-7.8-7.6-13.3-12.3-19.5c-4.3-5.9-7-12.8-9.6-19.6l-8.8-23.3
		c-1.7-4.6-3.6-9.4-7.5-12.4c-7.2-5.6-18.9-4.5-27.4-3.4C404.3,234.4,395.9,233.9,388.4,236.4z"/>
	<path class="st18" d="M391.1,304.3c0,0,3.9,12.7-25.5,27.4s2.9,30.3,2.9,30.3l34.3,7.8c0,0,35.2-4.9,39.2-10.8s10.8-25.5,8.8-28.4
		c-1.5-2.1-3.1-4.1-4.9-5.9c0,0-23.5-3.9-22.5-14.7S391.1,304.3,391.1,304.3z"/>
	<path class="st7" d="M391.1,304.3c0,0,3.9,12.7-25.5,27.4s2.9,30.3,2.9,30.3l34.3,7.8c0,0,35.2-4.9,39.2-10.8s10.8-25.5,8.8-28.4
		c-1.5-2.1-3.1-4.1-4.9-5.9c0,0-23.5-3.9-22.5-14.7S391.1,304.3,391.1,304.3z"/>
	
		<ellipse transform="matrix(0.1602 -0.9871 0.9871 0.1602 55.2246 651.0667)" class="st18" cx="410.2" cy="293.1" rx="31.3" ry="31.3"/>
	<path class="st2" d="M406.8,359.2c0,0-37.7-2.8-38.4-28.8c0,0-13.4-1.6-17.4,2.4c-3.9,3.9-16.6,6.9-16.6,16.6
		c0,9.8,21.5,39.2,21.5,39.2s11.7,39.2,6.9,46c-4.9,6.9-5.9,24.5-5.9,24.5s48.9-3.9,56.8,0c7.8,3.9,39.2,3.9,41.1,0
		c2-3.9-2-52.9-2-52.9s8.8-11.7,6.9-25.5l23.5-27.4c0,0-8.8-26.4-22.5-26.4c0,0-18.6-4.9-19.1-2.4
		C441.1,326.9,450.9,354.3,406.8,359.2z"/>
	<path class="st18" d="M318.7,445.3c0,0,8.8,13.7,31.3,16.6s26.4-4.9,24.5-6.9c-2-2-25.5-10.8-25.5-10.8l-13.7-10.8L318.7,445.3z"/>
	<path class="st18" d="M479.2,433.5l-25.5,14.7c0,0-33.3-2-20.6,7.8c12.7,9.8,36.2,5.9,36.2,5.9l22.5-10.8L479.2,433.5z"/>
	<path class="st17" d="M352,459c0,0-23.5,57.8,4.9,66.6c28.4,8.8,106.7,6.9,124.3-4.9c17.6-11.7,22.5-27.4,19.6-32.3
		c-2.9-4.9-22.5-18.6-36.2-19.6C450.9,467.8,352,459,352,459z"/>
	<path class="st19" d="M352,459c0,0-23.5,57.8,4.9,66.6c28.4,8.8,106.7,6.9,124.3-4.9c17.6-11.7,22.5-27.4,19.6-32.3
		c-2.9-4.9-22.5-18.6-36.2-19.6C450.9,467.8,352,459,352,459z"/>
	<path class="st17" d="M462.9,462.6c0,0,82.9-30,81.9,6.2c-1,36.2-52.9,46-52.9,46l-15.7,2l-86.1,2.9c0,0,2.9-15.7-3.9-17.6
		c0,0,22.5-5.9,23.5-6.9c1-1,56.8-20.6,60.7-21.5c3.9-1,15.7-8.8,24.5-7.8c0,0,9.8-7.8,20.6-5.9l-30.3,2L462.9,462.6z"/>
	<path class="st7" d="M462.9,462.6c0,0,82.9-30,81.9,6.2c-1,36.2-52.9,46-52.9,46l-15.7,2l-86.1,2.9c0,0,2.9-15.7-3.9-17.6
		c0,0,22.5-5.9,23.5-6.9c1-1,56.8-20.6,60.7-21.5c3.9-1,15.7-8.8,24.5-7.8c0,0,9.8-7.8,20.6-5.9l-30.3,2L462.9,462.6z"/>
	<polygon class="st17" points="448.2,467.4 458.7,491.3 522.3,468.8 527.2,456.1 510.6,453.1 477.1,459 462.6,462.9 	"/>
	<polygon class="st7" points="448.2,467.4 458.7,491.3 522.3,468.8 527.2,456.1 510.6,453.1 477.1,459 462.6,462.9 	"/>
	<path class="st17" d="M312.8,496.2c0,0,18.6,23.5,40.1,29.4s33.3-2,33.3-2l-6.9-27.4l-2.9-17.6l-12.7-8.8L338.3,458l-30.3-9.8
		c0,0-12.7-2-12.7,0c0,2,11.7,31.3,11.7,31.3L312.8,496.2z"/>
	<path class="st20" d="M335.3,508.9c0,0,3.9,28.4,8.8,30.3c4.9,2,19.6-2,23.5-3.9s17.2-11,17.2-11S338.3,507,335.3,508.9z"/>
	<polygon class="st18" points="424.4,511.9 443,514.8 441.1,537.3 415.1,531 	"/>
	<path class="st20" d="M436.1,518.1c0,0-8.7,10.4,0.1,16.2l5.9,4.9c0,0,19.6,3.9,21.5,5.9c2,2,9.8-2.9,9.8-2.9s1-29.4,0-31.3
		c-1-2-12.7-3.9-13.7-2c-1,2-12.7,4.9-19.6,2.9L436.1,518.1z"/>
	<path class="st17" d="M357.9,465.9c0,0-68.5-40.1-79.3-25.5c-10.8,14.7-22.5,35.2,8.8,50.9c31.3,15.7,129.2,48,129.2,48
		s14.7-22.5,14.7-28.4c0,0-51.9-23.5-60.7-25.5c-8.8-2-44-24.5-48.9-26.4c-4.9-2-11.7-7.8-11.7-7.8L357.9,465.9z"/>
	<path class="st2" d="M338.3,344.5l-3.9,2.9c0,0-8.8,22.5-9.8,35.2c-1,12.7-12.7,51.9-11.7,56.8s2,8.8,7.8,13.7
		c0,0,7.8-17.6,21.5-14.7l16.6-60.7L338.3,344.5z"/>
	<path class="st2" d="M475.3,344.5l7.8,8.8c0,0,4.9,11.7,4.9,14.7c0,2.9,9.8,46,10.8,48c1,2,4.9,26.4,0,32.3
		c-4.9,5.9-13.7,9.8-13.7,9.8s5.9-20.6-12.7-21.5l2-7.8l-17.6-58.7L475.3,344.5z"/>
	<path class="st21" d="M340.2,411.9v51.6c0,6.8,5.4,12.3,12.2,12.4l107.8,1.6c6.7,0.1,12.3-5.2,12.6-11.9l2-51.6
		c0.3-6.8-5.1-12.6-11.9-12.9c-0.1,0-0.2,0-0.3,0l-109.8-1.6c-6.8-0.1-12.5,5.4-12.6,12.2C340.2,411.7,340.2,411.8,340.2,411.9z"/>
	<ellipse class="st17" cx="412.1" cy="273.9" rx="33.7" ry="18.2"/>
	<circle class="st20" cx="406.3" cy="438.9" r="7.8"/>
	<path class="st17" d="M393.7,297.5L393.7,297.5c-1.2,0-2.2-1-2.2-2.2l0,0c0-1.2,1-2.2,2.2-2.2l0,0c1.2,0,2.2,1,2.2,2.2l0,0
		C395.9,296.5,394.9,297.5,393.7,297.5z"/>
	<path class="st17" d="M428.1,297.5L428.1,297.5c-1.2,0-2.2-1-2.2-2.2l0,0c0-1.2,1-2.2,2.2-2.2l0,0c1.2,0,2.2,1,2.2,2.2l0,0
		C430.3,296.5,429.3,297.5,428.1,297.5z"/>
	<path class="st22" d="M413.7,304.3c0,2.3-1.3,4.3-2.9,4.3s-2.9-1.9-2.9-4.3"/>
	<path class="st23" d="M404.2,315.1c4,3.7,10.3,3.4,14-0.6"/>
</g>
</svg>
